<svg width="106" height="24" viewBox="0 0 106 24" fill="none" xmlns="http://www.w3.org/2000/svg">
<path fill-rule="evenodd" clip-rule="evenodd" d="M88.8871 23.6383H80.0547L91.6853 0.394043H100.924L105.5 23.6383H96.6462L96.3312 20.7395H90.0192L88.8871 23.6383ZM95.8025 15.2334L95.3913 10.9743C95.2952 9.97029 95.3379 8.45882 95.3593 7.3792H95.0175L92.1552 15.2334H95.7384H95.8025Z" fill="white"/>
<path fill-rule="evenodd" clip-rule="evenodd" d="M67.5535 19.2605L74.1698 12.5776L79.7448 23.6384H69.7589L67.5535 19.2605Z" fill="white"/>
<path fill-rule="evenodd" clip-rule="evenodd" d="M53.2422 23.6384H63.2281L74.1699 12.5776H64.184L53.2422 23.6384Z" fill="#F59300"/>
<path fill-rule="evenodd" clip-rule="evenodd" d="M59.7197 0.39407L69.7003 0.388672L75.2806 11.4548H65.2947L59.7197 0.39407Z" fill="white"/>
<path fill-rule="evenodd" clip-rule="evenodd" d="M76.2417 0.394043L71.9109 4.77191L75.2805 11.4548L86.2222 0.394043H76.2417Z" fill="#F59300"/>
<path fill-rule="evenodd" clip-rule="evenodd" d="M48.212 0.394043H56.5638L52.9165 23.6383H44.5647L48.212 0.394043Z" fill="white"/>
<path fill-rule="evenodd" clip-rule="evenodd" d="M26.4406 23.6383H17.6082L29.2335 0.394043H38.4717L43.0482 23.6383H34.1997L33.8846 20.7395H27.5674L26.4406 23.6383ZM33.356 15.2334L32.9448 10.9743C32.8487 9.97029 32.8914 8.45882 32.9127 7.3792H32.571L29.7087 15.2334H33.2919H33.356Z" fill="white"/>
<path fill-rule="evenodd" clip-rule="evenodd" d="M18.895 9.80837C17.7629 8.55601 16.2463 7.47099 14.3613 7.47099C11.8568 7.47099 9.50719 9.47368 9.10135 12C8.71153 14.5641 10.5645 16.529 13.0637 16.529C14.9861 16.529 16.6362 15.7085 18.1901 14.3806L16.5774 23.0823C15.1303 23.7193 11.985 24 10.4844 24C3.93218 23.9946 -0.382587 18.8448 0.653384 12.2213C1.71071 5.4305 7.8411 0 14.5802 0C16.4706 0 18.377 0.356275 20.0378 0.955466L18.895 9.80837Z" fill="white"/>
</svg>
