<svg width="104" height="24" viewBox="0 0 104 24" fill="none" xmlns="http://www.w3.org/2000/svg">
<g clip-path="url(#clip0)">
<path fill-rule="evenodd" clip-rule="evenodd" d="M31.1768 4.79995V19.1998H45.5757V14.3999H38.3762C37.0509 14.3999 35.9762 13.3255 35.9762 11.9999V9.5999H48.0134C49.296 9.61972 50.3358 10.6457 50.3761 11.9228V21.6769C50.3358 22.9542 49.296 23.9802 48.0134 24H28.7388C27.4565 23.9802 26.4167 22.9542 26.3763 21.6769V2.32286C26.4167 1.04551 27.4565 0.0198168 28.7388 0H50.3761V2.39998C50.3761 3.72555 49.3015 4.79995 47.9761 4.79995H31.1768Z" fill="white"/>
<path fill-rule="evenodd" clip-rule="evenodd" d="M67.1468 4.79995L67.1466 21.6C67.1466 22.9249 66.0729 23.999 64.7483 24H62.3466V4.79995H55.1467C53.8211 4.79995 52.7467 3.72555 52.7467 2.39998V0H76.7462V2.39998C76.7462 3.72555 75.6718 4.79995 74.3462 4.79995H67.1468Z" fill="white"/>
<path fill-rule="evenodd" clip-rule="evenodd" d="M4.80043 4.79995L4.79995 21.6C4.79995 22.9249 3.72627 23.999 2.40165 24H0V0H23.9998V2.39998C23.9998 3.72555 22.9251 4.79995 21.5998 4.79995H4.80043Z" fill="white"/>
<path fill-rule="evenodd" clip-rule="evenodd" d="M7.00317 13.7227C7.00317 10.0115 10.0113 7.00317 13.7225 7.00317C15.565 7.00317 17.2344 7.74475 18.4482 8.94569L8.94545 18.4482C7.74475 17.2343 7.00317 15.5652 7.00317 13.7227Z" fill="white"/>
<path fill-rule="evenodd" clip-rule="evenodd" d="M83.934 4.79995V9.5999H100.771C102.053 9.61972 103.093 10.6457 103.133 11.9228V21.6769C103.093 22.9542 102.053 23.9802 100.771 24H79.1335V21.6C79.1335 20.2745 80.2079 19.1998 81.5335 19.1998H98.3329L98.3331 14.3999H81.496C80.2137 14.3803 79.1739 13.3543 79.1335 12.077V2.32286C79.1739 1.04551 80.2137 0.0198168 81.496 0H103.133V2.39998C103.133 3.72555 102.059 4.79995 100.733 4.79995H83.934Z" fill="white"/>
</g>
<defs>
<clipPath id="clip0">
<rect width="103.133" height="24" fill="white"/>
</clipPath>
</defs>
</svg>
